<?xml version="1.0" encoding="UTF-8"?>
<!DOCTYPE svg PUBLIC "-//W3C//DTD SVG 1.1//EN" "http://www.w3.org/Graphics/SVG/1.1/DTD/svg11.dtd">
<!-- Creator: CorelDRAW 2019 (64-Bit) -->
<svg xmlns="http://www.w3.org/2000/svg" xml:space="preserve" width="1028px" height="480px" version="1.1" style="shape-rendering:geometricPrecision; text-rendering:geometricPrecision; image-rendering:optimizeQuality; fill-rule:evenodd; clip-rule:evenodd"
viewBox="0 0 1028 480"
 xmlns:xlink="http://www.w3.org/1999/xlink"
 xmlns:xodm="http://www.corel.com/coreldraw/odm/2003">
 <defs>
  <style type="text/css">
   <![CDATA[
    .fil2 {fill:#FEFEFE}
    .fil1 {fill:#FEFEFE}
    .fil0 {fill:#2F318B}
   ]]>
  </style>
 </defs>
 <g id="Layer_x0020_1">
  <metadata id="CorelCorpID_0Corel-Layer"/>
  <path class="fil0" d="M0 480l1028 0 0 -480 -1028 0 0 480zm941.59 -67.2l-28.8 0 -12 26.4 -30.4 0 56 -117.6 15.2 0 15.2 0 57.6 117.6 -31.2 0 -12.8 -26.4 -28.8 0zm0 -63.2l-0.79 -0.8 -19.21 44 20 0 19.2 0 -19.2 -43.2zm-927.99 -28l57.6 0c11.2,0 20,0 25.61,0.8 5.59,0.79 10.4,2.4 15.19,5.59 4.01,2.41 8,5.6 11.21,9.61 2.39,4 3.99,8.8 3.99,13.6 0,5.6 -1.6,10.39 -5.6,15.2 -3.2,4.8 -8,8 -14.39,10.4 8.8,2.39 15.19,5.59 19.99,10.4 4.8,5.6 7.2,11.19 7.2,18.4 0,4.8 -1.6,10.39 -4.8,15.2 -3.19,4.8 -7.2,8.8 -11.99,12 -5.61,3.2 -12.01,4.8 -20,5.6 -4.01,0.8 -12.8,0.8 -26.41,0.8 -2.4,0 -5.59,0 -7.99,0l-49.61 0 0 -117.6zm57.6 20c-3.2,0 -7.2,0 -11.19,0l-16.81 0 0 27.2 19.2 0c3.21,0 6.4,0 8.8,0 5.6,-0.8 9.61,-0.8 12,-0.8 4.8,-0.8 8.81,-1.6 12,-4 2.41,-2.41 4,-5.6 4,-9.61 0,-3.19 -1.59,-6.39 -4,-8.8 -2.39,-2.39 -5.59,-3.2 -10.39,-3.99 -2.41,0 -6.41,0 -13.61,0zm0 46.4c-1.6,0 -3.2,0 -4.8,0l-23.2 0 0 31.2 26.4 0c0.81,0 0.81,0 1.6,0 9.61,0 16,0 18.41,0 4.79,-0.8 8,-2.4 10.39,-4.81 3.2,-2.39 4.01,-6.39 4.01,-10.39 0,-3.2 -0.81,-6.4 -2.4,-8.8 -2.41,-2.4 -5.61,-4.01 -9.6,-5.61 -3.21,-0.79 -10.41,-1.59 -20.81,-1.59zm88 51.2l0 -117.6 106.4 0 0 20 -77.6 0 0 26.4 72 0 0 19.2 -72 0 0 32 80 0 0 20 -108.8 0zm192 -97.6c-1.6,0 -4,0 -6.4,0l-22.4 0 0 29.6 20.8 0c3.2,0 5.6,0 8,0 9.6,0 16,-0.81 18.4,-1.6 3.2,-0.8 6.4,-2.4 8,-4.81 2.4,-2.39 3.2,-4.79 3.2,-8.8 0,-3.99 -1.6,-7.19 -4,-9.59 -2.4,-2.4 -6.4,-4.01 -11.2,-4.8 -1.6,0 -6.4,0 -14.4,0zm0 55.19c-2.4,-2.39 -5.6,-3.99 -8.8,-5.6 -3.2,-0.79 -8,-0.79 -14.4,-0.79l-5.6 0 0 48.8 -29.6 0 0 -117.6 58.4 0 3.2 0c15.2,0 26.4,0.8 33.6,3.2 6.4,2.4 12,5.6 16,11.2 4.8,5.6 6.4,12 6.4,18.39 0,8.8 -3.2,16 -9.6,22.41 -6.4,5.59 -15.2,8.8 -28,10.4 6.4,3.2 11.2,6.4 15.2,10.4 4,3.2 9.6,9.59 16.8,19.2l17.6 22.4 -35.2 0 -20.8 -25.6c-7.2,-8.8 -12,-14.4 -15.2,-16.81zm79.2 4.01l28.8 -1.6c1.6,7.2 4.8,12.8 10.4,16.79 4.8,3.21 12,5.61 20.8,5.61 9.6,0 16,-1.6 20.8,-4.8 4.8,-3.2 7.2,-7.2 7.2,-12 0,-2.4 -0.8,-4.81 -3.2,-6.41 -1.6,-2.39 -4.8,-3.99 -10.4,-5.59 -3.2,-0.8 -11.2,-2.4 -23.2,-4.8 -15.2,-3.2 -26.4,-7.21 -32.8,-12 -8.8,-6.4 -12.8,-14.41 -12.8,-23.21 0,-6.39 1.6,-11.99 6.4,-16.79 4,-5.6 9.6,-9.6 17.6,-12 8,-3.2 17.6,-4.8 28,-4.8 18.4,0 32,3.99 40.8,10.4 9.6,6.4 14.4,15.2 14.4,25.6l-28.8 0.79c-1.6,-5.59 -4,-10.4 -8,-12.79 -4,-2.4 -10.4,-4 -18.4,-4 -8.8,0 -15.2,1.6 -20,4 -3.2,2.39 -4.8,4.8 -4.8,8 0,2.4 1.6,4.79 4.8,6.4 3.2,3.2 12.8,5.59 26.4,8 14.4,3.2 24.8,5.6 31.2,8.8 7.2,3.2 12,7.2 16,12 4,4.79 5.6,11.2 5.6,18.4 0,7.2 -1.6,13.6 -6.4,19.2 -4.8,5.6 -11.2,10.4 -19.2,12.8 -8.8,3.2 -19.2,4.8 -32,4.8 -17.6,0 -32,-3.2 -41.6,-10.4 -9.6,-7.2 -15.2,-16.81 -17.6,-30.4zm198.4 -51.2l-0.8 -0.8 -19.2 44 20 0 19.2 0 -19.2 -43.2zm0 63.2l-28.8 0 -12 26.4 -30.4 0 56 -117.6 15.2 0 15.2 0 57.6 117.6 -31.2 0 -12.8 -26.4 -28.8 0zm88 26.4l0 -117.6 43.2 0 26.4 80 25.59 -80 43.2 0 0 117.6 -26.39 0 0 -92.8 -28.81 92.8 -27.99 0 -28 -92.8 0 92.8 -27.2 0zm250.4 -149.61l28.79 0 0 -251.19 -29.6 0 0.81 251.19zm-832.89 -68.1l133.04 -0.68 0 78.14 -31.63 0 0 -43.46 -81.04 0 -26.67 43.71 -46.41 0 50.4 -77.6 2.32 0.06 -0.01 -0.17zm659.29 67.31l155.19 -240.8 -0.79 241.59 -32.8 0 0 -134.39 -85.61 139.2 -35.99 0 -4 0 4 -5.6zm-638.4 -103.2l-11.2 17.6 11.2 0 57.6 0 54.4 0 0 -164 -18.4 0 -36 57.6 -57.6 88.8zm57.6 -7.99l-15.99 0.79 33.59 -53.6 6.41 0 0 52.81 -24.01 0zm-57.6 -25.61l-96.79 147.2 -26.4 0 0 -18.4 123.19 -188.8 34.41 -52.8 23.19 0 16 0 -16 24.8 -57.6 88zm131.2 147.2l36 0 0 -260 -37.6 0 1.6 260zm146.4 -88.8l-59.2 92 48 0 11.2 -18.4 98.4 -165.6 65.6 0 13.6 0 24.8 -33.6 -38.4 0.8 -84 0.8 -80 124zm0 -33.6l-82.4 125.6 -20 0 0 -21.6 102.4 -160.8 1.6 -2.4 -1.6 0 -97.6 0 -2.4 -9.6 12 -20.8 88 -0.8 58.4 0 -58.4 90.4zm0 -108l-76.8 0 16.8 -29.6 60 0 164 0 72 0 -21.6 28.8 -50.4 0 -164 0.8zm164 232l-24 0 24 -36.8 136.8 -212 7.99 -12.8 4.01 0 0 181.6 -12 18.4 -24 37.6 0 -123.2 -94.4 147.2 -18.4 0zm0 -126.4l-72 108.8 0.8 17.6 24 0 47.2 -71.2 123.99 -190.4 -35.19 0 -88.8 135.2zm136.8 100.8l-12.81 19.2 12.81 0 33.6 0 13.6 -21.6 12.8 -19.2 140.8 -215.2 -41.61 0 -95.19 148 0 -10.4 -4 5.6 -12.8 19.2 -47.2 74.4zm47.2 -108.8l-15.2 24 -0.81 -151.2 16.01 0 12.8 0 4 0 0 102.4 -4 6.4 -12.8 18.4z"/>
  <path class="fil1" d="M941.59 412.8l-28.8 0 -12 26.4 -30.4 0 56 -117.6 15.2 0 15.2 0 57.6 117.6 -31.2 0 -12.8 -26.4 -28.8 0zm0 -63.2l-0.79 -0.8 -19.21 44 20 0 19.2 0 -19.2 -43.2z"/>
  <path class="fil2" d="M967.2 289.59l28.79 0 0 -251.19 -29.6 0 0.81 251.19zm-832.89 -68.1l133.04 -0.68 0 78.14 -31.63 0 0 -43.46 -81.04 0 -26.67 43.71 -46.41 0 50.4 -77.6 2.32 0.06 -0.01 -0.17zm659.29 67.31l155.19 -240.8 -0.79 241.59 -32.8 0 0 -134.39 -85.61 139.2 -35.99 0 -4 0 4 -5.6zm-638.4 -103.2l-11.2 17.6 11.2 0 57.6 0 54.4 0 0 -164 -18.4 0 -36 57.6 -57.6 88.8zm57.6 -7.99l-15.99 0.79 33.59 -53.6 6.41 0 0 52.81 -24.01 0zm-57.6 -25.61l-96.79 147.2 -26.4 0 0 -18.4 123.19 -188.8 34.41 -52.8 23.19 0 16 0 -16 24.8 -57.6 88zm131.2 147.2l36 0 0 -260 -37.6 0 1.6 260zm146.4 -88.8l-59.2 92 48 0 11.2 -18.4 98.4 -165.6 65.6 0 13.6 0 24.8 -33.6 -38.4 0.8 -84 0.8 -80 124zm0 -33.6l-82.4 125.6 -20 0 0 -21.6 102.4 -160.8 1.6 -2.4 -1.6 0 -97.6 0 -2.4 -9.6 12 -20.8 88 -0.8 58.4 0 -58.4 90.4zm0 -108l-76.8 0 16.8 -29.6 60 0 164 0 72 0 -21.6 28.8 -50.4 0 -164 0.8zm164 232l-24 0 24 -36.8 136.8 -212 7.99 -12.8 4.01 0 0 181.6 -12 18.4 -24 37.6 0 -123.2 -94.4 147.2 -18.4 0zm0 -126.4l-72 108.8 0.8 17.6 24 0 47.2 -71.2 123.99 -190.4 -35.19 0 -88.8 135.2zm136.8 100.8l-12.81 19.2 12.81 0 33.6 0 13.6 -21.6 12.8 -19.2 140.8 -215.2 -41.61 0 -95.19 148 0 -10.4 -4 5.6 -12.8 19.2 -47.2 74.4zm47.2 -108.8l-15.2 24 -0.81 -151.2 16.01 0 12.8 0 4 0 0 102.4 -4 6.4 -12.8 18.4z"/>
  <polygon class="fil2" points="716.8,439.2 716.8,321.6 760,321.6 786.4,401.59 811.99,321.6 855.2,321.6 855.2,439.2 828.8,439.2 828.8,346.4 799.99,439.2 772,439.2 744,346.4 744,439.2 "/>
  <path class="fil2" d="M628.8 412.8l-28.8 0 -12 26.4 -30.4 0 56 -117.6 15.2 0 15.2 0 57.6 117.6 -31.2 0 -12.8 -26.4 -28.8 0zm0 -63.2l-0.8 -0.8 -19.2 44 20 0 19.2 0 -19.2 -43.2z"/>
  <path class="fil2" d="M430.4 400.8l28.8 -1.6c1.6,7.2 4.8,12.8 10.4,16.79 4.8,3.2 12,5.61 20.8,5.61 9.6,0 16,-1.6 20.8,-4.8 4.8,-3.2 7.2,-7.2 7.2,-12 0,-2.4 -0.8,-4.81 -3.2,-6.41 -1.6,-2.39 -4.8,-3.99 -10.4,-5.59 -3.2,-0.8 -11.2,-2.4 -23.2,-4.81 -15.2,-3.19 -26.4,-7.2 -32.8,-11.99 -8.8,-6.4 -12.8,-14.41 -12.8,-23.21 0,-6.39 1.6,-11.99 6.4,-16.79 4,-5.6 9.6,-9.61 17.6,-12 8,-3.2 17.6,-4.8 28,-4.8 18.4,0 32,3.99 40.8,10.4 9.6,6.4 14.4,15.2 14.4,25.6l-28.8 0.79c-1.6,-5.59 -4,-10.39 -8,-12.79 -4,-2.4 -10.4,-4 -18.4,-4 -8.8,0 -15.2,1.6 -20,4 -3.2,2.4 -4.8,4.8 -4.8,8 0,2.4 1.6,4.79 4.8,6.4 3.2,3.2 12.8,5.59 26.4,8 14.4,3.2 24.8,5.6 31.2,8.8 7.2,3.2 12,7.2 16,12 4,4.8 5.6,11.2 5.6,18.4 0,7.2 -1.6,13.6 -6.4,19.2 -4.8,5.6 -11.2,10.4 -19.2,12.8 -8.8,3.2 -19.2,4.8 -32,4.8 -17.6,0 -32,-3.2 -41.6,-10.4 -9.6,-7.2 -15.2,-16.81 -17.6,-30.4z"/>
  <path class="fil2" d="M351.2 396.79c-2.4,-2.39 -5.6,-3.99 -8.8,-5.59 -3.2,-0.8 -8,-0.8 -14.4,-0.8l-5.6 0 0 48.8 -29.6 0 0 -117.6 58.4 0 3.2 0c15.2,0 26.4,0.8 33.6,3.2 6.4,2.4 12,5.6 16,11.2 4.8,5.6 6.4,12 6.4,18.39 0,8.8 -3.2,16 -9.6,22.41 -6.4,5.59 -15.2,8.8 -28,10.4 6.4,3.2 11.2,6.4 15.2,10.4 4,3.2 9.6,9.59 16.8,19.2l17.6 22.4 -35.2 0 -20.8 -25.6c-7.2,-8.8 -12,-14.4 -15.2,-16.81zm0 -55.19c-1.6,0 -4,0 -6.4,0l-22.4 0 0 29.6 20.8 0c3.2,0 5.6,0 8,0 9.6,0 16,-0.81 18.4,-1.6 3.2,-0.8 6.4,-2.4 8,-4.8 2.4,-2.4 3.2,-4.8 3.2,-8.81 0,-3.99 -1.6,-7.19 -4,-9.59 -2.4,-2.4 -6.4,-4.01 -11.2,-4.8 -1.6,0 -6.4,0 -14.4,0z"/>
  <polygon class="fil2" points="159.2,439.2 159.2,321.6 265.6,321.6 265.6,341.6 188,341.6 188,368 260,368 260,387.2 188,387.2 188,419.19 268,419.19 268,439.2 "/>
  <path class="fil2" d="M13.6 321.6l57.6 0c11.2,0 20,0 25.6,0.8 5.6,0.79 10.41,2.4 15.2,5.59 4,2.41 8.01,5.6 11.21,9.61 2.39,4 3.99,8.8 3.99,13.6 0,5.6 -1.6,10.39 -5.6,15.2 -3.19,4.8 -8,8 -14.39,10.4 8.79,2.39 15.19,5.59 19.99,10.4 4.8,5.6 7.2,11.19 7.2,18.4 0,4.8 -1.6,10.39 -4.8,15.2 -3.19,4.8 -7.2,8.8 -11.99,12 -5.61,3.2 -12.01,4.8 -20.01,5.6 -4,0.8 -12.8,0.8 -26.4,0.8 -2.4,0 -5.6,0 -7.99,0l-49.61 0 0 -117.6zm57.6 20c-3.2,0 -7.2,0 -11.2,0l-16.8 0 0 27.2 19.2 0c3.2,0 6.4,0 8.8,0 5.6,-0.8 9.61,-0.8 12,-0.8 4.8,-0.8 8.81,-1.6 12,-4 2.4,-2.41 4.01,-5.6 4.01,-9.61 0,-3.19 -1.61,-6.39 -4.01,-8.79 -2.39,-2.4 -5.59,-3.21 -10.4,-4 -2.4,0 -6.4,0 -13.6,0zm0 46.39c-1.6,0 -3.2,0 -4.8,0l-23.2 0 0 31.2 26.4 0c0.81,0 0.81,0 1.6,0 9.61,0 16,0 18.41,0 4.79,-0.79 7.99,-2.39 10.39,-4.8 3.2,-2.39 4.01,-6.39 4.01,-10.39 0,-3.2 -0.81,-6.4 -2.4,-8.8 -2.4,-2.4 -5.61,-4 -9.6,-5.61 -3.21,-0.79 -10.41,-1.6 -20.81,-1.6z"/>
 </g>
</svg>
