<svg id="Capa_1" enable-background="new 0 0 512 512" height="512" viewBox="0 0 512 512" width="512" xmlns="http://www.w3.org/2000/svg"><g><circle cx="255.64" cy="256" fill="#f8f7f7" r="145"/><g><g><path d="m255.64 408.5c-84.089 0-152.5-68.411-152.5-152.5s68.411-152.5 152.5-152.5 152.5 68.411 152.5 152.5-68.411 152.5-152.5 152.5zm0-290c-75.818 0-137.5 61.683-137.5 137.5s61.682 137.5 137.5 137.5 137.5-61.683 137.5-137.5-61.682-137.5-137.5-137.5z" fill="#e8e8e8"/></g><g><path d="m215.14 453h-92.2c-4.142 0-7.5-3.357-7.5-7.5s3.358-7.5 7.5-7.5h92.2c1.378 0 2.5-1.121 2.5-2.5v-33c0-4.143 3.358-7.5 7.5-7.5s7.5 3.357 7.5 7.5v33c0 9.649-7.851 17.5-17.5 17.5z" fill="#e8e8e8"/></g><g><path d="m399.294 453h-104.154c-9.649 0-17.5-7.851-17.5-17.5v-33c0-4.143 3.358-7.5 7.5-7.5s7.5 3.357 7.5 7.5v33c0 1.379 1.122 2.5 2.5 2.5h104.154c4.142 0 7.5 3.357 7.5 7.5s-3.358 7.5-7.5 7.5z" fill="#e8e8e8"/></g><g><path d="m225.14 117c-4.142 0-7.5-3.357-7.5-7.5v-33c0-1.379-1.122-2.5-2.5-2.5h-81.362c-4.142 0-7.5-3.357-7.5-7.5s3.358-7.5 7.5-7.5h81.362c9.649 0 17.5 7.851 17.5 17.5v33c0 4.143-3.358 7.5-7.5 7.5z" fill="#e8e8e8"/></g><g><path d="m285.14 117c-4.142 0-7.5-3.357-7.5-7.5v-33c0-9.649 7.851-17.5 17.5-17.5h99c4.142 0 7.5 3.357 7.5 7.5s-3.358 7.5-7.5 7.5h-99c-1.378 0-2.5 1.121-2.5 2.5v33c0 4.143-3.358 7.5-7.5 7.5z" fill="#e8e8e8"/></g><g><path d="m109.14 263h-64.537c-4.142 0-7.5-3.357-7.5-7.5s3.358-7.5 7.5-7.5h64.537c4.142 0 7.5 3.357 7.5 7.5s-3.358 7.5-7.5 7.5z" fill="#e8e8e8"/></g><g><path d="m469.419 263h-67.279c-4.142 0-7.5-3.357-7.5-7.5s3.358-7.5 7.5-7.5h67.279c4.142 0 7.5 3.357 7.5 7.5s-3.358 7.5-7.5 7.5z" fill="#e8e8e8"/></g></g><path d="m148.64 101.275v-83.775c0-5.523-4.477-10-10-10h-106c-5.523 0-10 4.477-10 10v83.775z" fill="#f8f7f7"/><path d="m148.64 81.28v20h-126v-83.78c0-5.523 4.477-10 10-10h10v69.78c0 2.209 1.791 4 4 4z" fill="#e8e8e8"/><g><path d="m148.64 108.775h-126c-4.142 0-7.5-3.357-7.5-7.5v-83.775c0-9.649 7.851-17.5 17.5-17.5h106c9.649 0 17.5 7.851 17.5 17.5v83.775c0 4.143-3.358 7.5-7.5 7.5zm-118.5-15h111v-76.275c0-1.379-1.122-2.5-2.5-2.5h-106c-1.378 0-2.5 1.121-2.5 2.5z" fill="#9facba"/></g><path d="m158.638 107.703c-3.987 7.851-12.046 12.797-20.851 12.797h-.148-104c-8.882 0-16.998-5.032-20.947-12.988l-2.721-5.482c-.547-1.103-.268-.404-.268-1.635 0-4.408 3.573-7.981 7.981-7.981l12.486-.914h34.47l21.746 2.839 20.254-2.839h48.519c4.408 0 7.981 3.573 7.981 7.981v.416c0 1.256-.296 2.494-.865 3.614l-1.517 2.988z" fill="#b6c4cf"/><path d="m160.76 106.5-1.12 2.2c-3.99 7.85-12.05 12.8-20.85 12.8h-32.15l-22.19-1.95-19.81 1.95h-32c-4.44 0-8.69-1.26-12.32-3.51-3.64-2.25-6.66-5.5-8.63-9.48l-2.72-5.48c-.55-1.1-.83-2.32-.83-3.55 0-2.2.89-4.2 2.34-5.64 1.44-1.45 3.44-2.34 5.64-2.34h14.05l1 2.01c1.97 3.98 4.99 7.23 8.62 9.48s7.88 3.51 12.32 3.51z" fill="#9facba"/><path d="m106.64 91.5v30l-19.872-3-22.128 3v-30z" fill="#9facba"/><path d="m64.64 106.5h42v15h-42z" fill="#8d9ca8"/><g><path d="m479.42 14.5v40l-1 12h-103.56v-51c0-3.87 3.13-7 7-7l4-1h86.56c3.87 0 7 3.13 7 7z" fill="#7dc3ee"/><path d="m479.42 54.5v12l-58.964 3.839-46.596-3.839v-52c0-3.866 3.134-7 7-7h5v44c0 1.657 1.343 3 3 3z" fill="#64acdc"/><path d="m479.42 66.5v47l-1 4c0 3.87-3.13 7-7 7h-89.56c-3.87 0-7-3.13-7-7v-51z" fill="#7dc3ee"/><path d="m479.42 113.5v5c0 3.866-3.134 7-7 7h-91.56c-3.866 0-7-3.134-7-7v-52l4.321-2.986 7.679 2.986v44c0 1.657 1.343 3 3 3z" fill="#64acdc"/><g><path d="m453.986 44.5h-29.339c-4.142 0-7.5-3.357-7.5-7.5s3.358-7.5 7.5-7.5h29.339c4.142 0 7.5 3.357 7.5 7.5s-3.358 7.5-7.5 7.5z" fill="#f8f7f7"/></g><circle cx="399.294" cy="37" fill="#f8f7f7" r="7.5"/><g><path d="m453.986 103.5h-29.339c-4.142 0-7.5-3.357-7.5-7.5s3.358-7.5 7.5-7.5h29.339c4.142 0 7.5 3.357 7.5 7.5s-3.358 7.5-7.5 7.5z" fill="#f8f7f7"/></g><circle cx="399.294" cy="96" fill="#f8f7f7" r="7.5"/></g><path d="m130.419 503.5h-89.559c-3.866 0-7-3.134-7-7v-102c0-3.866 3.134-7 7-7l5-1h85.559c3.866 0 7 3.134 7 7v98l-1 5c0 3.866-3.134 7-7 7z" fill="#7dc3ee"/><path d="m138.42 491.5v6c0 3.866-3.134 7-7 7h-91.56c-3.866 0-7-3.134-7-7v-104c0-3.866 3.134-7 7-7h6v102c0 1.657 1.343 3 3 3z" fill="#64acdc"/><path d="m62.861 471.5v-52c0-1.657 1.343-3 3-3h39.559c1.657 0 3 1.343 3 3v52c0 1.657-1.343 3-3 3h-39.559c-1.657 0-3-1.343-3-3z" fill="#f8f7f7"/><g><path d="m287.273 231.5v-23.79c0-8.858-4.265-17.469-10.321-23.04-4.577-4.21-11.151-6.416-17.637-7.199-1.205-.146-2.431-.22-3.675-.22-16.795 0-30.459 13.664-30.459 30.46v23.79h-27.164v-23.79c0-33.391 24.233-59.7 57.624-59.7 2.263 0 4.497-.635 6.695-.393 30.24 3.331 53.765 28.965 53.765 60.093v23.79h-28.828z" fill="#ffd163"/><path d="m301.1 207.71v23.79h-15v-23.79c-.653-8.495-1.826-15.135-10.93-23.36-4.664-3.875-11.012-6.974-19.53-7.1h15c16.8 0 30.46 13.66 30.46 30.46z" fill="#ffb65f"/><path d="m263.14 147.72c-29.85 3.68-52.96 29.14-52.96 59.99v23.79h-15v-23.79c0-33.39 27.07-60.46 60.46-60.46 2.54 0 5.04.16 7.5.47z" fill="#ffb65f"/><path d="m184.181 222.174 3.459-1.424h141c5.523 0 10 4.477 10 10v8.25l-2.844 8.037 2.844 6.963v60.75c0 5.467-1.462 10.593-4.018 15.007-5.188 8.963-17.01 12.949-28.111 12.949l-102.881.385c-16.569 0-30-13.431-30-30l.55-80.917c.001-5.523 4.478-10 10.001-10z" fill="#9facba"/><path d="m334.61 329.75c-5.17 8.97-14.86 15-25.97 15h-106c-16.57 0-30-13.43-30-30v-60.75l3.963-7.5-3.963-7.5v-8.25c0-5.52 4.48-10 10-10h5v95c0 7.72 6.28 14 14 14z" fill="#8d9ca8"/><g><path d="m338.64 239v15h-166l2.092-6.523-2.092-8.477z" fill="#ffd163"/></g><g><path d="m172.64 239h15v15h-15z" fill="#ffb65f"/></g><circle cx="256.14" cy="288.5" fill="#8d9ca8" r="17"/><g><path d="m256.14 325c-4.142 0-7.5-3.357-7.5-7.5v-22.5c0-4.143 3.358-7.5 7.5-7.5s7.5 3.357 7.5 7.5v22.5c0 4.143-3.358 7.5-7.5 7.5z" fill="#8d9ca8"/></g></g><g><path d="m455.356 256.5c0-10.274 4.982-19.1 13.842-22.945 3.047-1.322 6.409-2.055 9.942-2.055 13.807 0 25 11.193 25 25 0 3.452-.7 6.74-1.965 9.731-3.795 8.973-12.685 13.503-23.04 13.503-13.807 0-23.779-9.427-23.779-23.234z" fill="#ccf49f"/><path d="m502.08 266.44c-3.84 8.86-12.66 15.06-22.94 15.06-13.81 0-25-11.19-25-25 0-10.28 6.2-19.1 15.06-22.94-1.33 3.04-2.06 6.41-2.06 9.94 0 13.81 11.19 25 25 25 3.53 0 6.9-.73 9.94-2.06z" fill="#b3e59f"/></g><path d="m459.419 504.5h-65.559c-5.523 0-10-4.477-10-10v-98c0-5.523 4.477-10 10-10h65.559c5.523 0 10 4.477 10 10v98c0 5.523-4.477 10-10 10z" fill="#f8f7f7"/><path d="m469.42 489.5v5c0 5.52-4.48 10-10 10h-65.56c-5.52 0-10-4.48-10-10v-98c0-5.52 4.48-10 10-10h5v99c0 2.21 1.79 4 4 4z" fill="#e8e8e8"/><circle cx="426.64" cy="477.5" fill="#8d9ca8" r="7.5"/><g><path d="m459.419 512h-65.559c-9.649 0-17.5-7.851-17.5-17.5v-98c0-9.649 7.851-17.5 17.5-17.5h65.559c9.649 0 17.5 7.851 17.5 17.5v98c0 9.649-7.85 17.5-17.5 17.5zm-65.558-118c-1.378 0-2.5 1.121-2.5 2.5v98c0 1.379 1.122 2.5 2.5 2.5h65.559c1.378 0 2.5-1.121 2.5-2.5v-98c0-1.379-1.122-2.5-2.5-2.5z" fill="#8d9ca8"/></g><g><path d="m9.076 256.5c0-10.274 4.982-19.1 13.842-22.945 3.047-1.322 6.409-2.055 9.942-2.055 13.807 0 25 11.193 25 25 0 3.452-.7 6.74-1.965 9.731-3.795 8.973-12.685 13.503-23.04 13.503-13.807 0-23.779-9.427-23.779-23.234z" fill="#ccf49f"/><path d="m55.8 266.44c-3.84 8.86-12.66 15.06-22.94 15.06-13.81 0-25-11.19-25-25 0-10.28 6.2-19.1 15.06-22.94-1.33 3.04-2.06 6.41-2.06 9.94 0 13.81 11.19 25 25 25 3.53 0 6.9-.73 9.94-2.06z" fill="#b3e59f"/></g></g></svg>